#!OML:ASF E:\motion texture\Top Level 1\Subject 1\Session 1\male.ASF
:FULLY-SPECIFIED
:DEGREES
456
root -22.6648 17.7976 1.91908 520.19 -69.2182 -506.733
lowerback 2.61961 0.666921 10.1667
upperback -4.20277 1.41822 2.77618
thorax -5.72868 0.251422 -2.86789
lowerneck -13.6651 -2.21004 -8.53838
upperneck -8.51338 -2.15134 6.45232
head -0.217328 -1.02486 3.55049
rclavicle -4.80189e-014 -2.99171e-014
rhumerus -43.5353 -18.042 -40.6077
rradius 38.6828
rwrist 8.52643
rhand -6.08754 -20.5561
rfingers 7.12502
rthumb 19.7482 -49.5729
lclavicle -4.80189e-014 -2.99171e-014
lhumerus -42.3268 29.4739 63.6074
lradius 20.9562
lwrist -55.0848
lhand -7.25406 19.3843
lfingers 7.12502
lthumb 18.6265 48.5125
rfemur 0.681805 0.73854 32.5669
rtibia 20.5397
rfoot -14.2034 3.07687
rtoes 3.09285
lfemur -35.7086 2.6744 -7.34605
ltibia 21.3954
lfoot -0.66545 15.3261
ltoes -4.07927
457
root -22.8293 17.7956 1.906 520.086 -69.6596 -506.766
lowerback 2.67217 0.719951 9.90535
upperback -4.15896 1.48316 2.73763
thorax -5.7054 0.299122 -2.77027
lowerneck -13.6092 -2.28508 -8.56117
upperneck -8.40459 -2.24512 6.36403
head -0.184263 -1.06849 3.51861
rclavicle -2.29845e-015 -2.32578e-014
rhumerus -45.269 -19.3279 -41.8724
rradius 37.135
rwrist 9.14239
rhand -5.35716 -20.1661
rfingers 7.12502
rthumb 20.4502 -49.1092
lclavicle -2.29845e-015 -2.32578e-014
lhumerus -44.9605 31.1431 62.7385
lradius 19.2922
lwrist -57.2974
lhand -5.57325 17.761
lfingers 7.12502
lthumb 20.2425 46.7262
rfemur 0.696073 0.593392 32.2225
rtibia 21.6412
rfoot -13.8568 2.92348
rtoes 1.71853
lfemur -35.8475 2.75997 -7.9978
ltibia 22.5882
lfoot -0.723303 14.5105
ltoes -2.76452
458
root -22.9975 17.7964 1.89243 519.744 -70.0853 -506.59
lowerback 2.71856 0.776954 9.71828
upperback -4.10588 1.55531 2.72659
thorax -5.66833 0.347824 -2.68492
lowerneck -13.5352 -2.3567 -8.56706
upperneck -8.27474 -2.33753 6.23891
head -0.148422 -1.1119 3.47052
rclavicle 4.05583e-014 2.94201e-014
rhumerus -47.0047 -20.8232 -42.8667
rradius 35.5533
rwrist 9.84604
rhand -4.6647 -19.8331
rfingers 7.12502
rthumb 21.1155 -48.7033
lclavicle 4.05583e-014 2.94201e-014
lhumerus -47.8475 32.9829 61.3151
lradius 17.6987
lwrist -59.8425
lhand -3.6428 16.3655
lfingers 7.12502
lthumb 22.0969 45.1229
rfemur 0.647877 0.357207 31.929
rtibia 22.9327
rfoot -13.367 2.85023
rtoes 0.369208
lfemur -35.8341 2.90022 -8.56264
ltibia 23.6242
lfoot -0.809803 13.4514
ltoes -1.25729
459
root -23.1691 17.799 1.87902 519.206 -70.4899 -506.25
lowerback 2.75737 0.839207 9.59084
upperback -4.04002 1.6355 2.74089
thorax -5.6128 0.39896 -2.6062
lowerneck -13.4711 -2.42536 -8.55709
upperneck -8.1081 -2.427 6.08502
head -0.0999192 -1.15409 3.40924
rclavicle 1.38652e-014 -5.46658e-015
rhumerus -48.7482 -22.5193 -43.5457
rradius 33.9412
rwrist 10.6419
rhand -4.04055 -19.5576
rfingers 7.12502
rthumb 21.715 -48.3597
lclavicle 1.38652e-014 -5.46658e-015
lhumerus -51.0877 34.99 59.2036
lradius 16.2182
lwrist -62.9008
lhand -1.42213 15.2233
lfingers 7.12502
lthumb 24.2275 43.7128
rfemur 0.525515 0.0428847 31.6608
rtibia 24.4226
rfoot -12.6939 2.8733
rtoes -0.832567
lfemur -35.6701 3.05292 -9.04624
ltibia 24.5254
lfoot -0.913296 12.3531
ltoes 0.354245
460
root -23.3435 17.8027 1.86658 518.567 -70.8803 -505.84
lowerback 2.78425 0.90741 9.49298
upperback -3.96187 1.72268 2.76793
thorax -5.53691 0.453401 -2.5306
lowerneck -13.4177 -2.48977 -8.54008
upperneck -7.90012 -2.50987 5.92394
head -0.036922 -1.19288 3.34436
rclavicle 8.15017e-015 3.03147e-015
rhumerus -50.5127 -24.3816 -43.8855
rradius 32.2934
rwrist 11.511
rhand -3.54051 -19.3543
rfingers 7.12502
rthumb 22.1951 -48.1
lclavicle 8.15017e-015 3.03147e-015
lhumerus -54.7557 37.028 56.3635
lradius 14.918
lwrist -66.492
lhand 1.15712 14.3387
lfingers 7.12502
lthumb 26.6982 42.4755
rfemur 0.314718 -0.339365 31.3707
rtibia 26.1135
rfoot -11.8095 2.97683
rtoes -1.82954
lfemur -35.3678 3.18306 -9.48563
ltibia 25.3174
lfoot -1.06484 11.3532
ltoes 1.91299
461
root -23.5199 17.807 1.85578 517.947 -71.2619 -505.471
lowerback 2.7927 0.980906 9.39466
upperback -3.87611 1.81392 2.79507
thorax -5.44236 0.510715 -2.45447
lowerneck -13.3866 -2.54946 -8.52699
upperneck -7.63723 -2.58256 5.7765
head 0.0473605 -1.226 3.28541
rclavicle -4.30431e-014 3.08116e-015
rhumerus -52.2874 -26.3339 -43.9077
rradius 30.5922
rwrist 12.4001
rhand -3.23464 -19.2696
rfingers 7.12502
rthumb 22.4888 -47.9801
lclavicle -4.30431e-014 3.08116e-015
lhumerus -58.8126 38.8809 52.9279
lradius 13.8556
lwrist -70.4019
lhand 4.06582 13.6742
lfingers 7.12502
lthumb 29.4785 41.3546
rfemur -0.00566622 -0.77377 31.0135
rtibia 27.9921
rfoot -10.6618 3.12675
rtoes -2.48573
lfemur -34.9481 3.27562 -9.92298
ltibia 26.013
lfoot -1.30735 10.5246
ltoes 3.241
462
root -23.6971 17.8115 1.84694 517.44 -71.6529 -505.23
lowerback 2.77994 1.05483 9.26736
upperback -3.78394 1.90115 2.80931
thorax -5.3299 0.56802 -2.37503
lowerneck -13.4333 -2.60747 -8.47736
upperneck -7.27816 -2.65107 5.60758
head 0.174986 -1.2575 3.21164
rclavicle -1.17904e-014 -4.95471e-014
rhumerus -54.0544 -28.3097 -43.6497
rradius 28.8202
rwrist 13.2981
rhand -3.11487 -19.2953
rfingers 7.12502
rthumb 22.6037 -47.9919
lclavicle -1.17904e-014 -4.95471e-014
lhumerus -63.0002 40.2878 49.3077
lradius 13.0694
lwrist -74.1702
lhand 7.35622 13.181
lfingers 7.12502
lthumb 32.6147 40.2617
rfemur -0.451182 -1.24475 30.5592
rtibia 30.0311
rfoot -9.20445 3.27312
rtoes -2.68287
lfemur -34.4345 3.32006 -10.3982
ltibia 26.6114
lfoot -1.65613 9.85513
ltoes 4.19265
